<svg width="1600" height="980" viewBox="0 0 1600 980" xmlns="http://www.w3.org/2000/svg">
  <defs>
    <style>
      .bg { fill: #ffffff; }
      .frame { fill: none; stroke: #111111; stroke-width: 1.8; }
      .domain { fill: none; stroke: #777777; stroke-width: 1.2; stroke-dasharray: 8 6; }
      .box { fill: #ffffff; stroke: #111111; stroke-width: 1.8; }
      .store-top { fill: #f3f3f3; stroke: #111111; stroke-width: 1.8; }
      .store-body { fill: #f9f9f9; stroke: #111111; stroke-width: 1.8; }
      .title { font: 700 20px Arial, Helvetica, sans-serif; fill: #111111; }
      .domain-title { font: 700 18px Arial, Helvetica, sans-serif; fill: #111111; }
      .box-title { font: 700 15px Arial, Helvetica, sans-serif; fill: #111111; }
      .box-text { font: 400 12px Arial, Helvetica, sans-serif; fill: #222222; }
      .flow-label { font: 700 12px Arial, Helvetica, sans-serif; fill: #111111; }
      .principle-title { font: 700 18px Arial, Helvetica, sans-serif; fill: #111111; }
      .principle-text { font: 400 12px Arial, Helvetica, sans-serif; fill: #222222; }
    </style>
    <marker id="arrow" markerWidth="10" markerHeight="10" refX="9" refY="5" orient="auto">
      <path d="M0 0L10 5L0 10V0Z" fill="#111111"/>
    </marker>
  </defs>

  <rect class="bg" width="1600" height="980"/>

  <rect class="domain" x="16" y="18" width="248" height="610" rx="12"/>
  <rect class="domain" x="342" y="18" width="864" height="610" rx="12"/>
  <rect class="domain" x="1232" y="18" width="352" height="610" rx="12"/>
  <rect class="domain" x="342" y="678" width="864" height="270" rx="12"/>
  <rect class="domain" x="1232" y="678" width="352" height="270" rx="12"/>

  <text x="38" y="54" class="domain-title">1. Channels</text>
  <text x="364" y="54" class="domain-title">2. Core Product Validation System</text>
  <text x="1254" y="54" class="domain-title">3. External Services</text>
  <text x="364" y="714" class="domain-title">4. Persistent State</text>
  <text x="1254" y="714" class="principle-title">Architectural Principle</text>

  <!-- Channels -->
  <rect class="box" x="40" y="150" width="170" height="78"/>
  <text x="96" y="183" class="box-title">Public</text>
  <text x="70" y="208" class="box-title">Landing Page</text>

  <rect class="box" x="40" y="490" width="170" height="82"/>
  <text x="58" y="528" class="box-title">WhatsApp</text>
  <text x="52" y="553" class="box-title">Operator User</text>

  <!-- Core -->
  <rect class="box" x="370" y="150" width="182" height="86"/>
  <text x="409" y="184" class="box-title">Candidate</text>
  <text x="400" y="209" class="box-title">Intake Service</text>

  <rect class="box" x="678" y="150" width="182" height="86"/>
  <text x="719" y="184" class="box-title">Call Dispatch</text>
  <text x="734" y="209" class="box-title">Service</text>

  <rect class="box" x="645" y="306" width="248" height="76"/>
  <text x="693" y="338" class="box-title">Interview Processing</text>
  <text x="736" y="362" class="box-title">Pipeline</text>

  <rect class="box" x="662" y="434" width="214" height="88"/>
  <text x="695" y="470" class="box-title">Hiring Intelligence</text>
  <text x="739" y="495" class="box-title">Engine</text>

  <rect class="box" x="900" y="500" width="232" height="82"/>
  <text x="952" y="533" class="box-title">WhatsApp Operations</text>
  <text x="981" y="558" class="box-title">Service</text>

  <!-- External -->
  <rect class="box" x="1308" y="108" width="200" height="78"/>
  <text x="1376" y="141" class="box-title">Scheduler</text>
  <text x="1348" y="166" class="box-text">pg_cron + pg_net</text>

  <rect class="box" x="1308" y="250" width="200" height="86"/>
  <text x="1388" y="284" class="box-title">Retell</text>
  <text x="1346" y="309" class="box-text">voice interview provider</text>

  <rect class="box" x="1308" y="490" width="200" height="82"/>
  <text x="1383" y="523" class="box-title">Infobip</text>
  <text x="1360" y="548" class="box-text">WhatsApp transport</text>

  <rect class="box" x="1308" y="636" width="200" height="108"/>
  <text x="1381" y="669" class="box-title">OpenAI</text>
  <text x="1350" y="694" class="box-text">transcription + grounded</text>
  <text x="1370" y="716" class="box-text">generation</text>
  <text x="1368" y="736" class="box-text">(LLM peripheral)</text>

  <!-- Stores -->
  <ellipse class="store-top" cx="560" cy="772" rx="58" ry="16"/>
  <rect class="store-body" x="502" y="772" width="116" height="84"/>
  <ellipse class="store-body" cx="560" cy="856" rx="58" ry="16"/>
  <text x="528" y="812" class="box-title">Candidate</text>
  <text x="538" y="835" class="box-title">Store</text>

  <ellipse class="store-top" cx="742" cy="772" rx="66" ry="16"/>
  <rect class="store-body" x="676" y="772" width="132" height="84"/>
  <ellipse class="store-body" cx="742" cy="856" rx="66" ry="16"/>
  <text x="705" y="812" class="box-title">Interview</text>
  <text x="703" y="835" class="box-title">Session Store</text>

  <ellipse class="store-top" cx="938" cy="772" rx="62" ry="16"/>
  <rect class="store-body" x="876" y="772" width="124" height="84"/>
  <ellipse class="store-body" cx="938" cy="856" rx="62" ry="16"/>
  <text x="902" y="812" class="box-title">Intelligence</text>
  <text x="920" y="835" class="box-title">Store</text>

  <ellipse class="store-top" cx="1124" cy="772" rx="76" ry="16"/>
  <rect class="store-body" x="1048" y="772" width="152" height="84"/>
  <ellipse class="store-body" cx="1124" cy="856" rx="76" ry="16"/>
  <text x="1074" y="812" class="box-title">Operator State</text>
  <text x="1082" y="835" class="box-title">and Audit Store</text>

  <!-- Principle -->
  <text x="1256" y="760" class="principle-text">Determinism owns workflow state,</text>
  <text x="1256" y="782" class="principle-text">routing, lists, and facts.</text>
  <line x1="1256" y1="804" x2="1538" y2="804" stroke="#777777" stroke-width="1.2"/>
  <text x="1256" y="836" class="principle-text">LLM is peripheral.</text>
  <text x="1256" y="866" class="principle-text">Used only for:</text>
  <text x="1272" y="890" class="principle-text">- transcription</text>
  <text x="1272" y="912" class="principle-text">- summary</text>
  <text x="1272" y="934" class="principle-text">- comparison</text>
  <text x="1272" y="956" class="principle-text">- grounded Q&amp;A</text>

  <!-- Flows A-E -->
  <line x1="210" y1="189" x2="370" y2="189" stroke="#111111" stroke-width="2.2" marker-end="url(#arrow)"/>
  <circle cx="292" cy="164" r="15" fill="#111111"/>
  <text x="287" y="169" class="flow-label" fill="#ffffff">A</text>

  <line x1="552" y1="193" x2="678" y2="193" stroke="#111111" stroke-width="2.2" marker-end="url(#arrow)"/>
  <circle cx="614" cy="164" r="15" fill="#111111"/>
  <text x="609" y="169" class="flow-label" fill="#ffffff">B</text>

  <line x1="860" y1="193" x2="1308" y2="293" stroke="#111111" stroke-width="2.2" marker-end="url(#arrow)"/>

  <path d="M1308 293H1212V344H893" fill="none" stroke="#111111" stroke-width="2.2" marker-end="url(#arrow)"/>
  <circle cx="948" cy="318" r="15" fill="#111111"/>
  <text x="943" y="323" class="flow-label" fill="#ffffff">C</text>

  <line x1="210" y1="531" x2="1308" y2="531" stroke="#111111" stroke-width="2.2" marker-end="url(#arrow)"/>
  <line x1="1308" y1="551" x2="1132" y2="551" stroke="#111111" stroke-width="2.2" marker-end="url(#arrow)"/>
  <circle cx="292" cy="506" r="15" fill="#111111"/>
  <text x="286" y="511" class="flow-label" fill="#ffffff">D</text>

  <path d="M1408 186V96H769V150" fill="none" stroke="#111111" stroke-width="2.2" stroke-dasharray="8 6" marker-end="url(#arrow)"/>
  <circle cx="960" cy="54" r="15" fill="#111111"/>
  <text x="955" y="59" class="flow-label" fill="#ffffff">E</text>

  <!-- Internal core relations -->
  <line x1="461" y1="236" x2="461" y2="756" stroke="#111111" stroke-width="1.8"/>
  <line x1="461" y1="756" x2="560" y2="756" stroke="#111111" stroke-width="1.8" marker-end="url(#arrow)"/>

  <line x1="520" y1="236" x2="520" y2="736" stroke="#111111" stroke-width="1.8"/>
  <line x1="520" y1="736" x2="742" y2="736" stroke="#111111" stroke-width="1.8" marker-end="url(#arrow)"/>

  <line x1="769" y1="236" x2="769" y2="306" stroke="#111111" stroke-width="1.8" marker-end="url(#arrow)"/>
  <line x1="769" y1="382" x2="769" y2="434" stroke="#111111" stroke-width="1.8" marker-end="url(#arrow)"/>

  <line x1="769" y1="522" x2="769" y2="736" stroke="#111111" stroke-width="1.8" marker-end="url(#arrow)"/>
  <line x1="760" y1="736" x2="742" y2="736" stroke="#111111" stroke-width="1.8"/>

  <line x1="720" y1="522" x2="720" y2="756" stroke="#111111" stroke-width="1.8"/>
  <line x1="720" y1="756" x2="560" y2="756" stroke="#111111" stroke-width="1.8" marker-end="url(#arrow)"/>

  <line x1="818" y1="522" x2="818" y2="736" stroke="#111111" stroke-width="1.8"/>
  <line x1="818" y1="736" x2="938" y2="736" stroke="#111111" stroke-width="1.8" marker-end="url(#arrow)"/>

  <line x1="1018" y1="582" x2="1018" y2="736" stroke="#111111" stroke-width="1.8"/>
  <line x1="1018" y1="736" x2="938" y2="736" stroke="#111111" stroke-width="1.8" marker-end="url(#arrow)"/>

  <line x1="1064" y1="582" x2="1064" y2="756" stroke="#111111" stroke-width="1.8"/>
  <line x1="1064" y1="756" x2="1124" y2="756" stroke="#111111" stroke-width="1.8" marker-end="url(#arrow)"/>

  <line x1="972" y1="582" x2="972" y2="716" stroke="#111111" stroke-width="1.8"/>
  <line x1="972" y1="716" x2="742" y2="716" stroke="#111111" stroke-width="1.8" marker-end="url(#arrow)"/>

  <!-- OpenAI relations -->
  <line x1="1308" y1="672" x2="876" y2="478" stroke="#111111" stroke-width="1.8" marker-end="url(#arrow)"/>
  <line x1="1132" y1="531" x2="1308" y2="531" stroke="#111111" stroke-width="1.8" marker-end="url(#arrow)"/>
</svg>
