<svg width="1400" height="1080" viewBox="0 0 1400 1080" fill="none" xmlns="http://www.w3.org/2000/svg">
  <rect width="1400" height="1080" fill="#0F172A"/>
  <rect x="70" y="56" width="1260" height="968" rx="40" fill="#111827" stroke="#334155"/>
  <text x="112" y="124" fill="#F8FAFC" font-family="Arial, Helvetica, sans-serif" font-size="34" font-weight="700">WhatsApp Operator Preview</text>
  <text x="112" y="162" fill="#94A3B8" font-family="Arial, Helvetica, sans-serif" font-size="18">Representative view based on the live Hiring OS operator flow and current production copy.</text>

  <rect x="112" y="216" width="1176" height="736" rx="30" fill="#E5DDD5"/>
  <rect x="112" y="216" width="1176" height="96" rx="30" fill="#0F3B39"/>
  <circle cx="180" cy="264" r="34" fill="#1F2937"/>
  <text x="159" y="275" fill="#F6B73C" font-family="Arial, Helvetica, sans-serif" font-size="22" font-weight="700">HO</text>
  <text x="236" y="256" fill="#F8FAFC" font-family="Arial, Helvetica, sans-serif" font-size="28" font-weight="700">Hiring OS</text>
  <text x="236" y="286" fill="#C7D2E3" font-family="Arial, Helvetica, sans-serif" font-size="18">Operator line · +57 314 344 9324</text>

  <rect x="156" y="354" width="706" height="240" rx="24" fill="#FFFFFF"/>
  <text x="190" y="402" fill="#0F172A" font-family="Arial, Helvetica, sans-serif" font-size="22" font-weight="700">Welcome to Hiring OS.</text>
  <text x="190" y="446" fill="#334155" font-family="Arial, Helvetica, sans-serif" font-size="20">Scheduled: 2</text>
  <text x="190" y="478" fill="#334155" font-family="Arial, Helvetica, sans-serif" font-size="20">Completed: 7</text>
  <text x="190" y="510" fill="#334155" font-family="Arial, Helvetica, sans-serif" font-size="20">Priority candidates: 7</text>
  <text x="190" y="558" fill="#475569" font-family="Arial, Helvetica, sans-serif" font-size="18">You can review interviews, inspect the shortlist, and manage follow-ups directly from WhatsApp.</text>

  <rect x="902" y="642" width="342" height="74" rx="22" fill="#DCF8C6"/>
  <text x="942" y="687" fill="#0F172A" font-family="Arial, Helvetica, sans-serif" font-size="22" font-weight="700">Scheduled</text>

  <rect x="156" y="750" width="830" height="162" rx="24" fill="#FFFFFF"/>
  <text x="190" y="798" fill="#0F172A" font-family="Arial, Helvetica, sans-serif" font-size="22" font-weight="700">Scheduled interviews</text>
  <text x="190" y="842" fill="#334155" font-family="Arial, Helvetica, sans-serif" font-size="19">Saturday, May 23, 2026</text>
  <text x="190" y="876" fill="#0F172A" font-family="Arial, Helvetica, sans-serif" font-size="19">1. James Leblance · 9:00 AM · +1 941 928 3226</text>
  <text x="190" y="906" fill="#0F172A" font-family="Arial, Helvetica, sans-serif" font-size="19">2. Juan Villalba · 11:00 AM · +1 239 243 9967</text>

  <rect x="1016" y="778" width="228" height="52" rx="18" fill="#0F3B39"/>
  <text x="1060" y="812" fill="#F8FAFC" font-family="Arial, Helvetica, sans-serif" font-size="18" font-weight="700">Completed</text>
  <rect x="1016" y="842" width="228" height="52" rx="18" fill="#0F3B39"/>
  <text x="1070" y="876" fill="#F8FAFC" font-family="Arial, Helvetica, sans-serif" font-size="18" font-weight="700">Shortlist</text>

  <rect x="112" y="968" width="1176" height="56" rx="0" fill="#F8FAFC"/>
  <text x="144" y="1004" fill="#64748B" font-family="Arial, Helvetica, sans-serif" font-size="18">Preview intent: deterministic scheduling visibility first, grounded interview analysis second.</text>
</svg>
